<svg width="65" height="34" viewBox="0 0 65 34" fill="none" xmlns="http://www.w3.org/2000/svg">
<path d="M40.5945 20.3078C40.5945 22.0305 39.1932 23.4318 37.4705 23.4318H32.8199H31.8999H27.2492C25.5265 23.4318 24.1252 22.0305 24.1252 20.3078V17.2945V16.3745V13.3611C24.1252 11.6385 25.5265 10.2371 27.2492 10.2371H31.8999H32.8199H37.4705C39.1932 10.2371 40.5945 11.6385 40.5945 13.3611V16.3745V17.2945V20.3078ZM41.5145 16.3745V13.3611C41.5145 11.1318 39.6999 9.31712 37.4705 9.31712H32.8199V0.215789H31.8999V9.31712H27.2492C25.0199 9.31712 23.2065 11.1318 23.2065 13.3611V16.3745H0.241211V17.2945H23.2065V20.3078C23.2065 22.5371 25.0199 24.3505 27.2492 24.3505H31.8999V33.4531H32.8199V24.3505H37.4705C39.6999 24.3505 41.5145 22.5371 41.5145 20.3078V17.2945H64.4785V16.3745H41.5145Z" fill="black"/>
</svg>
