<svg width="184" height="84" viewBox="0 0 184 84" fill="none" xmlns="http://www.w3.org/2000/svg">
<path d="M156.389 63.1657L111.259 18.0364C108.694 15.471 105.213 14.0284 101.585 14.0284L80.8326 14.0284C77.2046 14.0284 73.7233 12.587 71.158 10.0217L65.4326 4.29636C64.094 2.95769 65.0433 0.669688 66.9353 0.669688L79.242 0.669687C82.1393 0.669687 84.9166 1.82036 86.9646 3.86836L89.25 6.15236C91.5633 8.46702 94.702 9.76702 97.974 9.76702L123.682 9.76702C127.31 9.76702 130.791 11.2084 133.357 13.7737L183.115 63.5323C184.453 64.871 183.507 67.159 181.614 67.1603L166.075 67.1737C162.442 67.1763 158.958 65.735 156.389 63.1657Z" fill="black"/>
<path d="M132.566 71.4114L87.4365 26.282C84.8712 23.7167 81.3899 22.274 77.7619 22.274L57.0099 22.274C53.3819 22.274 49.9005 20.8327 47.3352 18.2674L33.2765 4.29671C31.9379 2.95805 32.8859 0.668712 34.7792 0.668712L47.0859 0.668711C49.9819 0.668711 52.7592 1.81937 54.8072 3.86737L65.4259 14.398C67.7405 16.7127 70.8792 18.0127 74.1512 18.0127L99.8592 18.0127C103.487 18.0127 106.969 19.454 109.534 22.0194L159.293 71.778C160.63 73.1167 159.685 75.4047 157.791 75.406L142.253 75.4194C138.619 75.422 135.135 73.9807 132.566 71.4114Z" fill="black"/>
<path d="M108.743 79.6571L63.6138 34.5278C61.0485 31.9624 57.5671 30.5198 53.9391 30.5198L33.1871 30.5198C29.5591 30.5198 26.0778 29.0784 23.5125 26.5131L1.31511 4.31577C-0.0235561 2.9771 0.924442 0.689099 2.81778 0.689099L15.1244 0.689097C18.0218 0.689097 20.7991 1.83843 22.8471 3.88643L41.6031 22.6438C43.9178 24.9584 47.0565 26.2584 50.3285 26.2584L76.0364 26.2584C79.6644 26.2584 83.1458 27.6998 85.7111 30.2651L135.47 80.0238C136.807 81.3624 135.862 83.6504 133.968 83.6517L118.43 83.6651C114.796 83.6678 111.312 82.2264 108.743 79.6571Z" fill="black"/>
</svg>
