<svg width="46" height="43" viewBox="0 0 46 43" fill="none" xmlns="http://www.w3.org/2000/svg">
<path d="M24.9161 39.8071C27.9575 37.5964 30.1388 30.4537 30.1881 21.7097H41.4095C41.2575 31.1004 34.0828 38.8124 24.9161 39.8071ZM4.40545 21.7097H15.6255C15.6748 30.4537 17.8561 37.5964 20.8975 39.8071C11.7321 38.8124 4.55612 31.1004 4.40545 21.7097ZM20.8975 3.00975C17.8561 5.22042 15.6748 12.3631 15.6255 21.1071H4.40545C4.55612 11.7164 11.7321 4.00442 20.8975 3.00975ZM23.2081 21.1071V2.92042C26.6615 3.37108 29.5255 11.4857 29.5855 21.1071H23.2081ZM23.2081 21.7097H29.5855C29.5255 31.3311 26.6615 39.4457 23.2081 39.8964V21.7097ZM22.6055 21.7097V39.8964C19.1535 39.4457 16.2881 31.3311 16.2295 21.7097H22.6055ZM22.6055 21.1071H16.2295C16.2881 11.4857 19.1535 3.37108 22.6055 2.92042V21.1071ZM41.4095 21.1071H30.1881C30.1388 12.3631 27.9575 5.22042 24.9161 3.00975C34.0828 4.00442 41.2575 11.7164 41.4095 21.1071ZM23.2081 2.30308V0.551084H22.6055V2.30308C12.3068 2.46442 3.96279 10.8084 3.80145 21.1071H0.224121V21.7097H3.80145C3.96279 32.0084 12.3068 40.3524 22.6055 40.5137V42.2657H23.2081V40.5137C33.5081 40.3524 41.8521 32.0084 42.0121 21.7097H45.5908V21.1071H42.0121C41.8521 10.8084 33.5081 2.46442 23.2081 2.30308Z" fill="black"/>
</svg>
